<?xml version="1.0" encoding="utf-8"?>
<!-- Generator: Adobe Illustrator 24.3.0, SVG Export Plug-In . SVG Version: 6.00 Build 0)  -->
<svg version="1.1" id="Layer_1" xmlns="http://www.w3.org/2000/svg" xmlns:xlink="http://www.w3.org/1999/xlink" x="0px" y="0px"
	 viewBox="0 0 209 209" style="enable-background:new 0 0 209 209;" xml:space="preserve">
<style type="text/css">
	.st0{fill:#3A4A20;}
</style>
<path class="st0" d="M156.7,52.2c-1.9,45.2-3.4,49.7-42.9,51.7c-2.1-0.2-3.7-0.5-4.9-1.1c0.4-1.8,1.6-3.7,3.6-6.5
	c-2.8,2-4.7,3.2-6.5,3.6c-0.6-1.2-0.9-2.8-1.1-4.9C107,55.6,111.5,54,156.7,52.2c-48.5-2-50.1-3.6-52.2-52.2
	c-2,48.5-3.6,50.1-52.2,52.2c45.2,1.9,49.7,3.4,51.7,42.9c-0.2,2.1-0.5,3.7-1.1,4.9c-1.8-0.4-3.7-1.6-6.5-3.6c2,2.8,3.2,4.7,3.6,6.5
	c-1.2,0.6-2.8,0.9-4.9,1.1c-39.5-2-41-6.5-42.9-51.7c-2,48.5-3.6,50.1-52.2,52.2c48.5,2,50.1,3.6,52.2,52.2
	c1.9-45.2,3.4-49.7,42.9-51.7c2.1,0.2,3.7,0.5,4.9,1.1c-0.4,1.8-1.6,3.7-3.6,6.5c2.8-2,4.7-3.2,6.5-3.6c0.6,1.2,0.9,2.8,1.1,4.9
	c-2,39.5-6.5,41-51.7,42.9c48.5,2,50.1,3.6,52.2,52.2c2-48.5,3.6-50.1,52.2-52.2c-45.2-1.9-49.7-3.4-51.7-42.9
	c0.2-2.1,0.5-3.7,1.1-4.9c1.8,0.4,3.7,1.6,6.5,3.6c-2-2.8-3.2-4.7-3.6-6.5c1.2-0.6,2.8-0.9,4.9-1.1c39.5,2,41,6.5,42.9,51.7
	c2-48.5,3.6-50.1,52.2-52.2C160.4,102.3,158.7,100.7,156.7,52.2z"/>
</svg>
